<svg id="svg" version="1.1" width="400" height="400" viewBox="0 0 400 400" xmlns="http://www.w3.org/2000/svg" xmlns:xlink="http://www.w3.org/1999/xlink" ><g id="svgg"><path id="path0" d="M21.311 132.389 C 19.735 133.350,19.357 134.643,20.117 136.464 C 21.137 138.903,30.021 151.976,31.332 152.965 C 33.748 154.787,33.929 154.795,72.227 154.798 C 112.886 154.800,111.387 154.704,114.072 157.488 C 114.874 158.320,118.487 163.500,122.101 169.000 C 125.714 174.500,134.750 188.270,142.180 199.600 C 156.483 221.413,157.079 222.234,158.985 222.751 C 161.826 223.523,160.468 225.286,180.202 195.200 C 196.283 170.682,197.731 168.655,199.466 168.219 C 201.945 167.597,201.370 166.829,222.180 198.600 C 236.697 220.764,238.234 222.826,240.277 222.884 C 242.736 222.954,242.046 223.898,264.008 190.400 C 287.565 154.470,286.394 156.053,290.010 155.243 C 293.610 154.436,296.400 155.632,296.400 157.983 C 296.400 159.834,295.892 160.669,280.829 183.600 C 241.818 242.986,243.476 240.526,241.886 241.382 C 238.740 243.076,240.675 245.624,212.795 203.085 C 203.336 188.651,202.178 187.200,200.127 187.200 C 197.881 187.200,196.744 188.733,179.791 214.600 C 162.748 240.605,162.152 241.432,160.158 241.829 C 157.971 242.265,156.765 240.604,133.361 204.913 C 120.843 185.822,109.851 169.448,108.936 168.526 C 106.333 165.905,107.230 165.968,74.252 166.090 L 44.464 166.200 43.432 167.170 C 42.864 167.703,42.400 168.565,42.400 169.086 C 42.400 170.989,38.101 164.317,96.981 253.800 C 164.224 355.992,157.226 345.760,159.874 345.760 C 162.226 345.760,160.558 348.093,186.152 309.000 C 196.866 292.636,197.986 291.200,200.041 291.200 C 202.249 291.200,203.161 292.431,220.190 318.400 C 238.467 346.272,237.565 344.994,239.386 345.596 C 242.169 346.514,242.197 346.481,253.831 328.800 C 257.812 322.750,272.379 300.610,286.201 279.600 C 325.863 219.313,340.198 197.528,357.131 171.800 C 365.819 158.600,374.227 145.820,375.816 143.400 C 383.185 132.174,382.809 131.600,368.087 131.600 C 354.446 131.600,356.790 129.704,341.300 153.270 C 327.745 173.893,314.362 194.238,292.141 228.000 C 283.381 241.310,269.238 262.820,260.711 275.800 C 244.051 301.161,242.545 303.200,240.478 303.200 C 238.285 303.200,237.043 301.524,220.186 275.800 C 203.089 249.711,202.573 248.989,200.728 248.584 C 198.273 248.045,198.041 248.319,188.124 263.400 C 160.424 305.524,162.076 303.200,159.831 303.200 C 157.257 303.200,162.244 310.393,114.070 237.200 C 87.502 196.833,85.626 193.863,85.609 192.129 C 85.573 188.582,93.849 188.728,96.877 192.327 C 97.415 192.966,110.893 213.353,126.828 237.631 C 142.762 261.909,156.391 282.364,157.113 283.087 C 160.391 286.364,161.562 285.191,173.991 266.171 C 198.534 228.611,197.821 229.600,200.349 229.600 C 201.939 229.600,203.696 231.875,212.635 245.500 C 239.157 285.928,238.064 284.400,240.460 284.400 C 241.209 284.400,242.095 283.946,242.995 283.100 C 244.229 281.940,335.576 143.236,338.474 138.122 C 340.115 135.226,339.956 133.278,338.000 132.301 C 336.292 131.447,279.634 131.210,276.600 132.044 C 273.992 132.760,272.505 134.745,258.200 156.596 C 243.542 178.985,242.484 180.400,240.400 180.400 C 238.324 180.400,237.287 179.012,222.600 156.584 C 205.758 130.865,206.436 131.607,199.779 131.602 C 193.661 131.597,194.736 130.384,177.444 156.800 C 159.019 184.945,160.058 184.252,152.852 173.200 C 128.229 135.433,126.976 133.648,124.200 132.360 C 121.625 131.165,23.272 131.193,21.311 132.389 " stroke="none" fill="#1e1e1e" fill-rule="evenodd"></path><path id="path1" d="M0.000 200.000 L 0.000 400.000 200.000 400.000 L 400.000 400.000 400.000 200.000 L 400.000 0.000 200.000 0.000 L 0.000 0.000 0.000 200.000 M124.200 132.360 C 126.976 133.648,128.229 135.433,152.852 173.200 C 160.058 184.252,159.019 184.945,177.444 156.800 C 194.736 130.384,193.661 131.597,199.779 131.602 C 206.436 131.607,205.758 130.865,222.600 156.584 C 237.287 179.012,238.324 180.400,240.400 180.400 C 242.484 180.400,243.542 178.985,258.200 156.596 C 272.505 134.745,273.992 132.760,276.600 132.044 C 279.634 131.210,336.292 131.447,338.000 132.301 C 339.956 133.278,340.115 135.226,338.474 138.122 C 335.576 143.236,244.229 281.940,242.995 283.100 C 242.095 283.946,241.209 284.400,240.460 284.400 C 238.064 284.400,239.157 285.928,212.635 245.500 C 203.696 231.875,201.939 229.600,200.349 229.600 C 197.821 229.600,198.534 228.611,173.991 266.171 C 161.562 285.191,160.391 286.364,157.113 283.087 C 156.391 282.364,142.762 261.909,126.828 237.631 C 110.893 213.353,97.415 192.966,96.877 192.327 C 93.849 188.728,85.573 188.582,85.609 192.129 C 85.626 193.863,87.502 196.833,114.070 237.200 C 162.244 310.393,157.257 303.200,159.831 303.200 C 162.076 303.200,160.424 305.524,188.124 263.400 C 198.041 248.319,198.273 248.045,200.728 248.584 C 202.573 248.989,203.089 249.711,220.186 275.800 C 237.043 301.524,238.285 303.200,240.478 303.200 C 242.545 303.200,244.051 301.161,260.711 275.800 C 269.238 262.820,283.381 241.310,292.141 228.000 C 314.362 194.238,327.745 173.893,341.300 153.270 C 356.790 129.704,354.446 131.600,368.087 131.600 C 382.809 131.600,383.185 132.174,375.816 143.400 C 374.227 145.820,365.819 158.600,357.131 171.800 C 340.198 197.528,325.863 219.313,286.201 279.600 C 272.379 300.610,257.812 322.750,253.831 328.800 C 242.197 346.481,242.169 346.514,239.386 345.596 C 237.565 344.994,238.467 346.272,220.190 318.400 C 203.161 292.431,202.249 291.200,200.041 291.200 C 197.986 291.200,196.866 292.636,186.152 309.000 C 160.558 348.093,162.226 345.760,159.874 345.760 C 157.405 345.760,158.707 347.578,130.674 305.000 C 115.188 281.479,67.665 209.245,56.594 192.400 C 41.025 168.711,41.277 169.195,43.432 167.170 L 44.464 166.200 74.252 166.090 C 107.230 165.968,106.333 165.905,108.936 168.526 C 109.851 169.448,120.843 185.822,133.361 204.913 C 156.765 240.604,157.971 242.265,160.158 241.829 C 162.152 241.432,162.748 240.605,179.791 214.600 C 196.744 188.733,197.881 187.200,200.127 187.200 C 202.178 187.200,203.336 188.651,212.795 203.085 C 240.675 245.624,238.740 243.076,241.886 241.382 C 243.476 240.526,241.818 242.986,280.829 183.600 C 295.892 160.669,296.400 159.834,296.400 157.983 C 296.400 155.632,293.610 154.436,290.010 155.243 C 286.394 156.053,287.565 154.470,264.008 190.400 C 242.046 223.898,242.736 222.954,240.277 222.884 C 238.234 222.826,236.697 220.764,222.180 198.600 C 201.370 166.829,201.945 167.597,199.466 168.219 C 197.731 168.655,196.283 170.682,180.202 195.200 C 160.468 225.286,161.826 223.523,158.985 222.751 C 157.079 222.234,156.483 221.413,142.180 199.600 C 111.563 152.910,114.055 156.404,110.634 155.388 C 108.956 154.890,103.104 154.800,72.227 154.798 C 33.929 154.795,33.748 154.787,31.332 152.965 C 30.021 151.976,21.137 138.903,20.117 136.464 C 19.357 134.643,19.735 133.350,21.311 132.389 C 23.272 131.193,121.625 131.165,124.200 132.360 " stroke="none" fill="#f3f3f3" fill-rule="evenodd"></path></g></svg>